<svg width="21" height="20" viewBox="0 0 21 20" fill="none" xmlns="http://www.w3.org/2000/svg">
<path d="M15.5156 10.9844V9.01562H11.4844V4.98438H9.51562V9.01562H5.48438V10.9844H9.51562V15.0156H11.4844V10.9844H15.5156ZM3.42188 2.96875C5.39062 1 7.75 0.015625 10.5 0.015625C13.25 0.015625 15.5938 1 17.5312 2.96875C19.5 4.90625 20.4844 7.25 20.4844 10C20.4844 12.75 19.5 15.1094 17.5312 17.0781C15.5938 19.0156 13.25 19.9844 10.5 19.9844C7.75 19.9844 5.39062 19.0156 3.42188 17.0781C1.48438 15.1094 0.515625 12.75 0.515625 10C0.515625 7.25 1.48438 4.90625 3.42188 2.96875Z" fill="#B872FF"/>
</svg>
